<svg width="751" height="720" viewBox="0 0 751 720" fill="none" xmlns="http://www.w3.org/2000/svg">
<path fill-rule="evenodd" clip-rule="evenodd" d="M503.856 716.521C417.813 691.647 360.282 581.926 288.473 505.947C214.805 428 74.7651 402.332 78.3811 266.336C82.5489 109.593 283.372 112.147 303.039 -41.8692C328.049 -237.723 101.674 -450.107 188.945 -599.514C267.083 -733.283 400.88 -472.695 503.856 -385.664C555.194 -342.275 587.365 -268.292 637.081 -220.767C692.512 -167.778 761.012 -160.237 809.521 -93.4663C896.662 26.4806 1030.27 135.361 1025.26 313.542C1020.53 481.494 887.456 574.112 788.592 650.521C700.922 718.28 600.537 744.469 503.856 716.521Z" stroke="#07B464"/>
<path fill-rule="evenodd" clip-rule="evenodd" d="M442.006 716.521C355.963 691.647 298.432 581.926 226.623 505.947C152.955 428 12.915 402.332 16.5311 266.336C20.6988 109.593 221.522 112.147 241.189 -41.8692C266.199 -237.723 39.8238 -450.107 127.095 -599.514C205.232 -733.283 339.03 -472.695 442.006 -385.664C493.344 -342.275 525.515 -268.292 575.231 -220.767C630.662 -167.778 699.162 -160.237 747.671 -93.4663C834.812 26.4806 968.418 135.361 963.405 313.542C958.681 481.494 825.606 574.112 726.742 650.521C639.072 718.28 538.686 744.469 442.006 716.521Z" stroke="#07B464"/>
<path fill-rule="evenodd" clip-rule="evenodd" d="M488.394 716.521C402.35 691.647 344.82 581.926 273.011 505.947C199.342 428 59.3026 402.332 62.9186 266.336C67.0863 109.593 267.91 112.147 287.577 -41.8692C312.586 -237.723 86.2114 -450.107 173.483 -599.514C251.62 -733.283 385.417 -472.695 488.394 -385.664C539.731 -342.275 571.903 -268.292 621.618 -220.767C677.049 -167.778 745.55 -160.237 794.059 -93.4663C881.2 26.4806 1014.81 135.361 1009.79 313.542C1005.07 481.494 871.993 574.112 773.13 650.521C685.459 718.28 585.074 744.469 488.394 716.521Z" stroke="#07B464"/>
<path fill-rule="evenodd" clip-rule="evenodd" d="M426.543 716.521C340.5 691.647 282.97 581.926 211.16 505.947C137.492 428 -2.54765 402.332 1.0684 266.336C5.23612 109.593 206.059 112.147 225.727 -41.8692C250.736 -237.723 24.3611 -450.107 111.633 -599.514C189.77 -733.283 323.567 -472.695 426.543 -385.664C477.881 -342.275 510.053 -268.292 559.768 -220.767C615.199 -167.778 683.7 -160.237 732.208 -93.4663C819.35 26.4806 952.955 135.361 947.943 313.542C943.218 481.494 810.143 574.112 711.28 650.521C623.609 718.28 523.224 744.469 426.543 716.521Z" stroke="#07B464"/>
<path fill-rule="evenodd" clip-rule="evenodd" d="M472.931 716.521C386.888 691.647 329.357 581.926 257.548 505.947C183.88 428 43.84 402.332 47.4561 266.336C51.6238 109.593 252.447 112.147 272.114 -41.8692C297.124 -237.723 70.7488 -450.107 158.02 -599.514C236.157 -733.283 369.955 -472.695 472.931 -385.664C524.269 -342.275 556.44 -268.292 606.156 -220.767C661.587 -167.778 730.087 -160.237 778.596 -93.4663C865.737 26.4806 999.343 135.361 994.33 313.542C989.606 481.494 856.531 574.112 757.667 650.521C669.997 718.28 569.612 744.469 472.931 716.521Z" stroke="#07B464"/>
<path fill-rule="evenodd" clip-rule="evenodd" d="M457.469 716.521C371.425 691.647 313.895 581.926 242.086 505.947C168.417 428 28.3775 402.332 31.9936 266.336C36.1613 109.593 236.985 112.147 256.652 -41.8692C281.661 -237.723 55.2863 -450.107 142.558 -599.514C220.695 -733.283 354.492 -472.695 457.469 -385.664C508.806 -342.275 540.978 -268.292 590.693 -220.767C646.124 -167.778 714.625 -160.237 763.134 -93.4663C850.275 26.4806 983.88 135.361 978.868 313.542C974.143 481.494 841.068 574.112 742.205 650.521C654.534 718.28 554.149 744.469 457.469 716.521Z" stroke="#07B464"/>
</svg>
