<svg width="779" height="720" viewBox="0 0 779 720" fill="none" xmlns="http://www.w3.org/2000/svg">
<mask id="mask0_1_654" style="mask-type:alpha" maskUnits="userSpaceOnUse" x="0" y="-102" width="1251" height="1802">
<path fill-rule="evenodd" clip-rule="evenodd" d="M688.348 -87.4186C801.912 -54.5894 877.843 90.2256 972.62 190.507C1069.85 293.384 1254.68 327.262 1249.91 506.756C1244.41 713.632 979.353 710.262 953.395 913.54C920.387 1172.04 1219.17 1452.35 1103.98 1649.54C1000.85 1826.1 824.261 1482.16 688.348 1367.3C620.59 1310.03 578.129 1212.38 512.512 1149.66C439.351 1079.72 348.941 1069.77 284.917 981.64C169.904 823.328 -6.43463 679.624 0.180891 444.452C6.41662 222.781 182.055 100.539 312.54 -0.309643C428.252 -89.7408 560.745 -124.306 688.348 -87.4186Z" fill="#EBFCF4"/>
</mask>
<g mask="url(#mask0_1_654)">
<rect x="1424.22" y="1746.54" width="1548.18" height="1904.54" transform="rotate(180 1424.22 1746.54)" fill="#EBFCF4"/>
</g>
</svg>
