<svg width="460" height="304" viewBox="0 0 460 304" fill="none" xmlns="http://www.w3.org/2000/svg">
<path fill-rule="evenodd" clip-rule="evenodd" d="M406.665 -328.164C451.11 -294.017 442.614 -224.119 472.378 -176.22C500.047 -131.693 567.808 -113.504 572.781 -60.8376C577.762 -8.09537 532.407 35.8772 496.044 74.4102C463.185 109.23 420.653 128.353 376.875 146.761C328.125 167.26 279.541 196.202 227.898 187.164C172.161 177.409 115.249 147.271 89.2389 96.4194C63.9702 47.0168 93.0976 -11.4439 97.7538 -67.2799C102.048 -118.77 94.7372 -170.092 115.418 -217.508C140.703 -275.481 168.965 -342.273 227.369 -364.463C286.278 -386.844 357.015 -366.311 406.665 -328.164Z" stroke="#07B464"/>
<path fill-rule="evenodd" clip-rule="evenodd" d="M406.665 -312.702C451.11 -278.554 442.614 -208.656 472.378 -160.758C500.047 -116.23 567.808 -98.0412 572.781 -45.375C577.762 7.36716 532.407 51.3398 496.044 89.8727C463.185 124.693 420.653 143.815 376.875 162.223C328.125 182.723 279.541 211.665 227.898 202.627C172.161 192.871 115.249 162.733 89.2389 111.882C63.9702 62.4793 93.0976 4.01861 97.7538 -51.8174C102.048 -103.308 94.7372 -154.629 115.418 -202.046C140.703 -260.019 168.965 -326.81 227.369 -349C286.278 -371.382 357.015 -350.848 406.665 -312.702Z" stroke="#07B464"/>
<path fill-rule="evenodd" clip-rule="evenodd" d="M406.665 -297.239C451.11 -263.091 442.614 -193.193 472.378 -145.295C500.047 -100.768 567.808 -82.5787 572.781 -29.9125C577.762 22.8297 532.407 66.8023 496.044 105.335C463.185 140.155 420.653 159.278 376.875 177.686C328.125 198.185 279.541 227.127 227.898 218.089C172.161 208.334 115.249 178.196 89.2389 127.344C63.9702 77.9419 93.0976 19.4811 97.7538 -36.3548C102.048 -87.8453 94.7372 -139.167 115.418 -186.583C140.703 -244.556 168.965 -311.348 227.369 -333.538C286.278 -355.919 357.015 -335.386 406.665 -297.239Z" stroke="#07B464"/>
</svg>
